<svg width="106" height="106" viewBox="0 0 106 106" fill="none" xmlns="http://www.w3.org/2000/svg">
<circle cx="53" cy="53" r="52.5" stroke="white" stroke-opacity="0.3" stroke-dasharray="2 2"/>
<path d="M69.8502 39.6663H66.568V36.3841C66.568 35.749 66.0535 35.2345 65.4184 35.2345C64.7832 35.2345 64.2687 35.749 64.2687 36.3841V39.6663H60.9865C60.3514 39.6663 59.8369 40.1808 59.8369 40.816C59.8369 41.4511 60.3514 41.9656 60.9865 41.9656H64.2687V45.2478C64.2687 45.883 64.7832 46.3974 65.4184 46.3974C66.0535 46.3974 66.568 45.883 66.568 45.2478V41.9656H69.8502C70.4854 41.9656 70.9998 41.4511 70.9998 40.816C70.9998 40.1808 70.4854 39.6663 69.8502 39.6663Z" fill="white"/>
<path d="M65.4185 50.4787C64.7834 50.4787 64.2689 50.9932 64.2689 51.6284V56.3878C64.2689 59.0061 62.1392 61.1358 59.5209 61.1358H46.0472C44.7798 61.1358 43.587 60.6415 42.6903 59.7448C41.7936 58.848 41.2993 57.6553 41.2993 56.3878L41.3021 49.1653C41.3021 47.2655 42.8484 45.7221 44.7482 45.7221C45.5586 45.7221 46.3145 45.2853 46.7169 44.5811L47.5705 43.0952C47.97 42.3997 48.7173 41.9686 49.5191 41.9686H54.6063C55.2414 41.9686 55.7559 41.4541 55.7559 40.8189C55.7559 40.1838 55.2414 39.6693 54.6063 39.6693H49.5191C47.8953 39.6693 46.3864 40.543 45.5759 41.9513L44.7482 43.4229C41.5809 43.4229 39.0057 45.998 39.0029 49.1653L39 56.385C39 58.2675 39.7329 60.0379 41.0636 61.3686C42.3943 62.6993 44.1647 63.4322 46.0472 63.4322H59.5209C63.4067 63.4322 66.5682 60.2707 66.5682 56.385V51.6284C66.5682 50.9932 66.0537 50.4787 65.4185 50.4787Z" fill="white"/>
<path d="M46.8701 52.3304C46.8701 55.5925 49.5229 58.2452 52.785 58.2452C56.0471 58.2452 58.6998 55.5925 58.6998 52.3304C58.6998 49.0683 56.0471 46.4155 52.785 46.4155C49.5229 46.4155 46.8701 49.0712 46.8701 52.3304ZM56.4006 52.3304C56.4006 54.325 54.7796 55.946 52.785 55.946C50.7904 55.946 49.1694 54.325 49.1694 52.3304C49.1694 50.3358 50.7904 48.7148 52.785 48.7148C54.7796 48.7148 56.4006 50.3386 56.4006 52.3304Z" fill="white"/>
</svg>
